<svg xmlns="http://www.w3.org/2000/svg" width="1200" height="760" viewBox="0 0 1200 760">
  <defs>
    <linearGradient id="bg" x1="0" x2="0" y1="0" y2="1">
      <stop offset="0%" stop-color="#d8e9df"/>
      <stop offset="100%" stop-color="#f4eee4"/>
    </linearGradient>
    <filter id="shadow" x="-20%" y="-20%" width="140%" height="140%">
      <feDropShadow dx="0" dy="8" stdDeviation="10" flood-color="#61716c" flood-opacity="0.22"/>
    </filter>
    <style>
      .title { font-family: Georgia, serif; font-size: 38px; fill: #1f2b27; }
      .sub { font-family: Arial, sans-serif; font-size: 17px; fill: #60706a; }
      .label { font-family: Arial, sans-serif; font-size: 15px; fill: #23302c; font-weight: 600; }
      .small { font-family: Arial, sans-serif; font-size: 13px; fill: #566560; }
      .line { fill: none; stroke-linecap: round; stroke-linejoin: round; }
      .road { fill: none; stroke: #f6f0e8; stroke-width: 36; stroke-linecap: round; stroke-linejoin: round; }
      .road-edge { fill: none; stroke: #b4c0ba; stroke-width: 40; stroke-linecap: round; stroke-linejoin: round; }
    </style>
  </defs>

  <rect width="1200" height="760" fill="url(#bg)"/>

  <text x="70" y="62" class="title">Utility Infrastructure Maps</text>
  <text x="72" y="94" class="sub">Buried services, isolators, shared service routes and excavation constraints</text>

  <rect x="55" y="120" width="820" height="560" rx="30" fill="#f9fbfa" stroke="#c8d4ce" filter="url(#shadow)"/>
  <rect x="910" y="120" width="235" height="360" rx="24" fill="#f9fbfa" stroke="#c8d4ce" filter="url(#shadow)"/>
  <text x="930" y="90" class="sub">Illustrative Hold map layer</text>
  <text x="930" y="153" font-family="Georgia, serif" font-size="26" fill="#1f2b27">Layers</text>

  
  <path d="M115 260 H790" class="road-edge"/>
  <path d="M115 260 H790" class="road"/>
  <path d="M230 150 V615" class="road-edge"/>
  <path d="M230 150 V615" class="road"/>

  <rect x="300" y="170" width="180" height="130" rx="18" fill="#eef3f0" stroke="#899a94"/>
  <text x="332" y="235" class="label">Block A</text>

  <rect x="550" y="175" width="210" height="130" rx="18" fill="#eef3f0" stroke="#899a94"/>
  <text x="606" y="240" class="label">Workshop</text>

  <rect x="315" y="420" width="230" height="140" rx="18" fill="#eef3f0" stroke="#899a94"/>
  <text x="365" y="490" class="label">Plant Room</text>

  <path d="M115 520 C250 500, 380 510, 785 465" stroke="#4f8caf" stroke-width="8" fill="none" stroke-linecap="round"/>
  <text x="610" y="450" class="small">Water main</text>

  <path d="M165 170 C310 210, 525 205, 790 190" stroke="#d59a37" stroke-width="8" fill="none" stroke-linecap="round"/>
  <text x="610" y="175" class="small">Gas route</text>

  <path d="M200 630 C360 560, 510 350, 755 310" stroke="#b94d4d" stroke-width="8" fill="none" stroke-linecap="round"/>
  <text x="612" y="330" class="small">Electrical duct</text>

  <path d="M130 360 C320 340, 550 365, 790 360" stroke="#5b5f92" stroke-width="8" fill="none" stroke-dasharray="14 10" stroke-linecap="round"/>
  <text x="612" y="388" class="small">Fibre / comms</text>

  <circle cx="235" cy="520" r="16" fill="#4f8caf" stroke="#1f2b27" stroke-width="2"/>
  <text x="255" y="525" class="small">Water isolator</text>

  <circle cx="520" cy="205" r="16" fill="#d59a37" stroke="#1f2b27" stroke-width="2"/>
  <text x="535" y="208" class="small">Gas valve</text>

  <circle cx="430" cy="440" r="16" fill="#b94d4d" stroke="#1f2b27" stroke-width="2"/>
  <text x="448" y="445" class="small">Electrical panel</text>

  <rect x="630" y="500" width="150" height="70" rx="14" fill="#fff4de" stroke="#d59a37" stroke-width="2"/>
  <text x="654" y="532" class="label">Unknown duct</text>
  <text x="654" y="552" class="small">Survey required</text>


  
        <g>
          <rect x="930" y="120" width="18" height="18" rx="4" fill="#4f8caf" stroke="#52615c" stroke-width="1"/>
          <text x="960" y="134" font-family="Georgia, serif" font-size="17" fill="#24312d">Water main</text>
        </g>
        <g>
          <rect x="930" y="154" width="18" height="18" rx="4" fill="#d59a37" stroke="#52615c" stroke-width="1"/>
          <text x="960" y="168" font-family="Georgia, serif" font-size="17" fill="#24312d">Gas route</text>
        </g>
        <g>
          <rect x="930" y="188" width="18" height="18" rx="4" fill="#b94d4d" stroke="#52615c" stroke-width="1"/>
          <text x="960" y="202" font-family="Georgia, serif" font-size="17" fill="#24312d">Electrical duct</text>
        </g>
        <g>
          <rect x="930" y="222" width="18" height="18" rx="4" fill="#5b5f92" stroke="#52615c" stroke-width="1"/>
          <text x="960" y="236" font-family="Georgia, serif" font-size="17" fill="#24312d">Fibre / comms</text>
        </g>
        <g>
          <rect x="930" y="256" width="18" height="18" rx="4" fill="#ffffff" stroke="#52615c" stroke-width="1"/>
          <text x="960" y="270" font-family="Georgia, serif" font-size="17" fill="#24312d">Isolation point</text>
        </g>
        <g>
          <rect x="930" y="290" width="18" height="18" rx="4" fill="#fff4de" stroke="#52615c" stroke-width="1"/>
          <text x="960" y="304" font-family="Georgia, serif" font-size="17" fill="#24312d">Unknown / survey needed</text>
        </g>

  <text x="70" y="720" class="small">Hold — spatial governance mock map for estate records. Illustrative only.</text>
</svg>