<svg xmlns="http://www.w3.org/2000/svg" width="1200" height="760" viewBox="0 0 1200 760">
  <defs>
    <linearGradient id="bg" x1="0" x2="0" y1="0" y2="1">
      <stop offset="0%" stop-color="#d8e9df"/>
      <stop offset="100%" stop-color="#f4eee4"/>
    </linearGradient>
    <filter id="shadow" x="-20%" y="-20%" width="140%" height="140%">
      <feDropShadow dx="0" dy="8" stdDeviation="10" flood-color="#61716c" flood-opacity="0.22"/>
    </filter>
    <style>
      .title { font-family: Georgia, serif; font-size: 38px; fill: #1f2b27; }
      .sub { font-family: Arial, sans-serif; font-size: 17px; fill: #60706a; }
      .label { font-family: Arial, sans-serif; font-size: 15px; fill: #23302c; font-weight: 600; }
      .small { font-family: Arial, sans-serif; font-size: 13px; fill: #566560; }
      .line { fill: none; stroke-linecap: round; stroke-linejoin: round; }
      .road { fill: none; stroke: #f6f0e8; stroke-width: 36; stroke-linecap: round; stroke-linejoin: round; }
      .road-edge { fill: none; stroke: #b4c0ba; stroke-width: 40; stroke-linecap: round; stroke-linejoin: round; }
    </style>
  </defs>

  <rect width="1200" height="760" fill="url(#bg)"/>

  <text x="70" y="62" class="title">Car Park & Access Plan</text>
  <text x="72" y="94" class="sub">Parking zones, contractor routes, rights of access and restricted tracks</text>

  <rect x="55" y="120" width="820" height="560" rx="30" fill="#f9fbfa" stroke="#c8d4ce" filter="url(#shadow)"/>
  <rect x="910" y="120" width="235" height="360" rx="24" fill="#f9fbfa" stroke="#c8d4ce" filter="url(#shadow)"/>
  <text x="930" y="90" class="sub">Illustrative Hold map layer</text>
  <text x="930" y="153" font-family="Georgia, serif" font-size="26" fill="#1f2b27">Layers</text>

  
  <path d="M125 230 H785" class="road-edge"/>
  <path d="M125 230 H785" class="road"/>
  <path d="M650 230 C650 350, 605 480, 760 610" class="road-edge"/>
  <path d="M650 230 C650 350, 605 480, 760 610" class="road"/>

  <rect x="120" y="150" width="215" height="150" rx="20" fill="#cfe3da" stroke="#52615c" stroke-width="2"/>
  <text x="168" y="215" class="label">Staff Parking</text>
  <text x="168" y="237" class="small">Permit Group A</text>

  <rect x="370" y="145" width="210" height="155" rx="20" fill="#e4dcc9" stroke="#52615c" stroke-width="2"/>
  <text x="412" y="215" class="label">Visitor Bays</text>
  <text x="412" y="237" class="small">Timed access</text>

  <rect x="120" y="360" width="260" height="210" rx="20" fill="#d8dfe6" stroke="#52615c" stroke-width="2"/>
  <text x="168" y="455" class="label">North Car Park</text>
  <text x="168" y="477" class="small">Split ownership</text>

  <rect x="425" y="385" width="180" height="145" rx="20" fill="#f0e1d8" stroke="#52615c" stroke-width="2"/>
  <text x="455" y="452" class="label">Contractor</text>
  <text x="455" y="474" class="small">Holding Zone</text>

  <path d="M100 630 C240 585, 430 625, 815 555" stroke="#577b88" stroke-width="8" stroke-dasharray="14 10" fill="none"/>
  <text x="440" y="650" class="small">Permitted service access route</text>

  <path d="M790 150 L790 625" stroke="#9a6a55" stroke-width="12" stroke-dasharray="18 12" stroke-linecap="round"/>
  <text x="675" y="150" class="small">Restricted estate track</text>

  <circle cx="650" cy="230" r="18" fill="#f9fbfa" stroke="#52615c" stroke-width="3"/>
  <text x="674" y="236" class="small">Gate 2</text>

  <circle cx="605" cy="480" r="18" fill="#f9fbfa" stroke="#52615c" stroke-width="3"/>
  <text x="626" y="486" class="small">Permit check</text>


  
        <g>
          <rect x="930" y="120" width="18" height="18" rx="4" fill="#cfe3da" stroke="#52615c" stroke-width="1"/>
          <text x="960" y="134" font-family="Georgia, serif" font-size="17" fill="#24312d">Staff parking</text>
        </g>
        <g>
          <rect x="930" y="154" width="18" height="18" rx="4" fill="#e4dcc9" stroke="#52615c" stroke-width="1"/>
          <text x="960" y="168" font-family="Georgia, serif" font-size="17" fill="#24312d">Visitor parking</text>
        </g>
        <g>
          <rect x="930" y="188" width="18" height="18" rx="4" fill="#d8dfe6" stroke="#52615c" stroke-width="1"/>
          <text x="960" y="202" font-family="Georgia, serif" font-size="17" fill="#24312d">Split ownership zone</text>
        </g>
        <g>
          <rect x="930" y="222" width="18" height="18" rx="4" fill="#f0e1d8" stroke="#52615c" stroke-width="1"/>
          <text x="960" y="236" font-family="Georgia, serif" font-size="17" fill="#24312d">Contractor holding zone</text>
        </g>
        <g>
          <rect x="930" y="256" width="18" height="18" rx="4" fill="#577b88" stroke="#52615c" stroke-width="1"/>
          <text x="960" y="270" font-family="Georgia, serif" font-size="17" fill="#24312d">Service access route</text>
        </g>
        <g>
          <rect x="930" y="290" width="18" height="18" rx="4" fill="#9a6a55" stroke="#52615c" stroke-width="1"/>
          <text x="960" y="304" font-family="Georgia, serif" font-size="17" fill="#24312d">Restricted estate track</text>
        </g>

  <text x="70" y="720" class="small">Hold — spatial governance mock map for estate records. Illustrative only.</text>
</svg>